<?xml version="1.0" encoding="UTF-8"?>
<svg id="Layer_1" xmlns="http://www.w3.org/2000/svg" version="1.1" viewBox="0 0 1920 1080">
  <!-- Generator: Adobe Illustrator 29.7.1, SVG Export Plug-In . SVG Version: 2.1.1 Build 8)  -->
  <defs>
    <style>
      .st0, .st1 {
        fill: #c6c2af;
      }

      .st1 {
        font-family: REMPONK, REMPONK;
        font-size: 184px;
      }
    </style>
  </defs>
  <g>
    <g>
      <path class="st0" d="M686.04,128.22c-.69-.86-8.07-5.29-9.31-5.67-6.98-2.1-13.45,3.28-20.2,4.07-8.16.95-20.62-2.27-27.13,3.5-1.78,1.58-12.15,20.34-13.66,23.64-2,4.38-3.54,13.41-5.39,16.42-.46.75-4.72,3.93-6.01,5.48-6.44,7.69-10.94,18.29-18.66,25.31v.97c14.03,9.15,23.76,24.89,31.96,39.3,1.26.13.54-1.34.34-2-1.65-5.58-5.78-14.84-8.66-19.98-2.07-3.7-9.23-11.93-10.03-14.61-3.08-10.28,18.53-16.67,26.03-16.04,12.03,1.01,8.66,13.44,18.57,11.97,7.41-1.1,14.91-16.56,17.81-22.82,4.29-9.25,6.85-19.36,12.93-27.7,3.31-4.54,16.39-15.55,11.39-21.84ZM1117.15,239.92c3.51-4.47,6.16-9.55,9.44-14.2,6.3-8.94,12.97-16.95,21.92-23.41l.35-1.71c-3.76-5.53-8.05-10.66-12.01-16.03-1.75-2.37-2.93-5.48-4.78-7.87-1.84-2.37-5.97-5.24-7.22-7.43-1.97-3.47-3.11-11.01-5.14-15.51-1.9-4.21-11.05-20.82-13.88-23.42-6.43-5.9-17.64-2.86-25.64-3.66-10.85-1.08-16.81-9.56-28.27-.95-9.88,7.42,3.73,17.37,7.94,23.27,9.31,13.07,14.2,39.55,25.96,48.63,13.27,10.24,12.2-6.91,21.81-8.86,7.57-1.54,28.86,3.72,28.86,13.5,0,3.1-8.24,12.59-10.37,16.3-3.83,6.68-6.36,14.11-8.97,21.32ZM754.17,152c-7.49-12.49-23.88-8.69-34.18-14.1-5.52-2.9-5.83-9.24-9.59-11.06-5.1-2.46-8.91-1.17-10.17,4.51.68-.57,6.1-1.56,5.32.32-6.08,6.14-9.68,14.1-15.33,20.64-5.86,6.78-10.9,9.09-14.47,18.16-4.58,11.59-5.43,22.08-15.12,31.5-6.03,5.87-11.52,5.28-17.7,8.94-4.5,2.67-3.46,4.2-2.16,8.86,3.49,12.59,17.92,23.44,25.16,34.11.83-.4.07-1.86-.14-2.52-1.66-5.21-5.21-11.8-8.31-16.33-2.66-3.89-16-16.22-4.71-18.28,6.08-1.11,14.83,2.17,19.18,6.47,5.23,5.16,12.17,22.93,21.87,17.92,3.6-1.86,14.68-16.5,16.76-20.53,6.82-13.22,2.95-24.26,11.75-37.53,4.46-6.73,15.15-15.95,17.5-22.46.67-1.85.73-5.1,1.63-6.36,2.09-2.9,9.53-2.25,12.7-2.29ZM1032.43,126.17c-10.82-3.1-11.36,7.26-16.96,11.07-5.58,3.8-15.37,3.53-21.99,5.98-4.39,1.62-9.35,5-12.19,8.78,2.48-.3,11.88.08,13.19,2.13.29.46.61,4.34,1.15,5.85,4.39,12.27,20.29,20.62,23.46,35.15,2.2,10.07-.19,14.27,5.38,24.59,3.16,5.84,14.62,22.54,21.74,22.24,7.82-.33,14.59-17.82,22.98-22.37,3.9-2.12,16.69-6.02,17.32.75.38,4.12-9.44,14.46-12.1,19.13-2.34,4.12-5.27,9.76-5.55,14.43,5.38-9.14,29.61-29.55,26.18-40.82-.73-2.39-14.02-6.12-17.41-8.57-12.37-8.95-12.94-20.77-17.91-33.37-3.57-9.06-10.64-13.5-16.48-20.81-4.87-6.11-8.14-13.38-14-18.63l5.99-1-2.8-4.52ZM778.82,340.81c-.54,3.46.39,8.05,0,11.65-3.97-.35-7.08-5.51-6.67-9.32-9.65,4.46-24.8,24.95-23.15,35.47.57,3.66,3.26,6.44,5.83,8.83,8.93,8.28,20,15.63,29.32,23.96,26.19,23.39,46.31,44.16,47.27,81.93l-1.33,22.3-10.82-37.46c-3.13-8.7-8.78-16.61-16.47-21.81-2.23,12.1-10.13,24.25-5,36.63,7.7,18.58,16.6,41.97,18.3,62.28,1.46,17.32-12.44,30.72-10.64,48.6,1.44,14.28,20.24,26.26,33.6,27.01,6.24.35,15.58-.64,20.34-4.68-5.37-2.29-9.07-9.23-12.26-14.05-3.64-5.5-6.95-12.87-10.76-17.88s-9.89-8.26-12.4-14.24c-4.01-9.52-1.21-23.12.13-33.09l5.42,16.22c6.97,17.29,34.55,15.34,50.18,14.41,10.46-.62,22.18-1.87,26.22-13.08l5.42-17.55c1.44,5.04,1.07,9.9,1.35,14.97.37,6.89,1.61,10.65-1.01,17.65-2.86,7.63-8.78,10.17-13.25,16.05-6.26,8.21-10.8,19.5-17.73,27.56l-4.64,3.67c22.57,11.56,55.65-3.18,52.54-30.89-1.26-11.18-10.36-25.55-9.93-36.67.53-13.53,9.9-45.73,15.21-58.75,2.92-7.17,5.27-7.64,4.81-16.56-.48-9.22-4.57-18.08-6.69-26.94-.77-.69-6.2,5.07-7,5.98-4.4,5.04-7.71,10.96-10.16,17.15l-9.82,35.47c-2.29-17.55-1.38-35.66,4.02-52.58,9.68-30.35,46.79-54.1,69.26-75.26,8.12-7.65,9.82-11.35,4.67-22.03-2.4-4.98-12.13-17.91-16.64-20.65-3.84-2.33-3.89,2.95-6.37,5.69-.95,1.05-2,1.84-3.33,2.33v-10.32c0-5.3-7.29-16.96-10.67-21.29-7.87-10.06-35.57-29.4-37.24-40.02-.8-5.12,1.27-8.71,1.29-12.61.01-2.56-.95-8.3-1.87-10.78-3.42-9.12-15.22-10.15-19.35-18.61-3.52-7.19-3.1-20.55-2.02-28.5,1.3-9.64,12.01-12.35,18.26-17.04,3.1-2.33,4.99-6.26,7.64-9.01,9.01-9.34,20.08-16.58,23.32-30.28-7.53,1.54-12.9,7.3-19.1,11.19-5.71,3.58-14.04,9.42-19.72,12.25-.62.31-.94.73-1.8.53v-15.65c0-1.59-1.38-6.88-1.97-8.68-.47-1.42-6.01-12.5-8.01-10.29,1.42,9.46,1.67,18.77.67,28.3-.24,2.05-3.53-3.34-4.03-3.97-10.48-12.99-21.98-25.62-36.82-33.78-3.92-2.15-8.55-5.05-13.1-4.54-2.88,2.89,14.49,17.59,16.64,20.33,1.73,2.21,4.51,6.2,3.69,8.97l-10.99-5.32c2.33,8.25,8.9,16.22,5.54,25.19-2.08,5.55-6.61,3.87-10.66,1.58-10.35-5.84-20.63-16.55-30.63-22.65-1.46-.89-6.87-3.76-8.21-2.78,1.77,3.59,3.56,7.21,5.72,10.59,3.95,6.18,19.47,22.96,25.25,27.36,6.55,4.99,16.97,7.48,19.35,16.61,1.63,6.28,1.41,21.3-.56,27.49-4.04,12.68-20.39,9.5-21.81,27.47-.43,5.46,1.51,10.59,1.39,15.32-.29,10.82-27.67,29.7-35.31,38.67-3.68,4.31-11.85,16.66-12.67,21.96ZM1183.07,215.94c1.48-1.46-9.53-23.35-10.98-26.65-2.58-5.9-2.63-12.18-8.54-16.1-5.3-3.51-11.62-4.52-17.33-8.64-7.49-5.4-11.83-15.01-21.09-17.2-.54.53,1.32,2.63,1.74,3.24,10.27,15.13,22.55,28.45,34.2,42.39,3.07,3.68,15.49,21.88,17.96,22.66,1.32.42,2.68.34,4.03.29ZM610.32,148.02c-1.15-.1-2.23-.02-3.35.31-3.88,1.14-11.86,11.99-15.96,15.34-5.62,4.61-10.77,5.44-16.9,8.41-9.25,4.48-7.22,8.5-10.58,16.73-3.69,9.05-8.91,17.52-11.16,27.13,1.36.05,2.71.12,4.03-.29,2.67-.84,16.09-20.19,19.3-23.99,4.83-5.73,10.53-10.85,15.28-16.69,6.95-8.55,12.86-18.05,19.33-26.95ZM701.56,272.22c.36,4.4-.26,9.2,0,13.65l3.21-8.45c5.46-12.56,11.21-8.86,18.44-.89,4.4,4.85,9.95,11.94,12.9,17.74,1.98,3.88,3.92,11.81,6.74,14.57,3.25,3.19,9.86,3.61,13.38,6.75-.19,1.94-1.24,3.44-2.37,4.92-5.24,6.86-14.35,12.91-20.31,19.65-5.3,5.99-10.05,13.34-14.02,20.29-1.72.2-1.06,0-1.34-.96-.77-2.63-1.04-5.43-1.96-8.04-4.88-13.93-18.76-22.83-14.68-38.94-2.18,2.01-13.47,16.92-11.98,18.64,10.73,1.15,15.92,7.04,19.82,16.48,4.18,10.13,4.43,16.97,4.18,27.84-.05,2.31-1.85,5.12.31,6.95,8.77-18.81,20.17-35.65,35.28-49.95,17.47-16.53,57.58-35.88,67.07-54.14,5.52-10.61.63-19.97,8.55-30.08,5.45-6.96,8.98-7.26,10.56-17.41,2.63-16.79-1.52-25.42-16.12-33.67-14.27-8.06-25.26-3.42-32.93-21.68-3.57-8.5-1.87-14.37-14.3-12.66-2.99.41-19.89,5.51-21.45,7.19-1.33,1.43-2.82,5.01-4.38,6.94-4.27,5.28-10.16,9.25-14.13,15.18-4.66,6.95-5.1,12.24-7.81,19.5-2.51,6.72-15.48,26.74-21.01,30.94-2.57,1.96-7.84,3.56-9.18,6.86-.97,2.4,4.71,9.89,5.71,13.25.71,2.39,1.6,7.09,1.8,9.52ZM1022.57,382.44v-18.31c0-3.01,2.32-11.39,3.49-14.49,3.54-9.37,9.8-17.59,20.49-18.48-1.88-7.3-8.54-11.61-12-17.97-1.79,1.06.01,4.61-.06,6.25-.52,11.82-8.71,16.69-13.16,26.14-2.27,4.82-3.55,10.39-4.77,15.55-4.51-6.84-9.31-13.41-14.66-19.63-5.88-6.84-16.71-15.48-21.29-21.99-5.7-8.1,7.88-5.94,11.33-9.98,5.23-11.89,10.11-22.61,18.96-32.33,6.74-7.41,13.68-12.71,19.11-.44l3.2,8.44c.14-7.98-.2-17.51,2.55-25.1,1.11-3.08,5.5-8.23,4.67-11.05-.7-2.39-6.35-4.56-8.49-6.2-4.52-3.47-16.86-21.46-19.66-26.96-2.31-4.53-2.88-10.19-4.92-15.06-4.81-11.48-11.66-15.51-19.11-24.18-1.97-2.3-3.21-6.14-5.71-7.61-2.09-1.24-17.09-5.84-19.77-6.21-13.97-1.89-11.23,9.07-16.02,17.6-8.22,14.64-30.66,11.7-42.42,25.51-6.75,7.92-6.99,21.42-3.52,30.84,2.2,5.96,9.83,9.55,12.64,15.99,2.67,6.11,1.5,12.29,2.83,18.48,4.15,19.21,33.73,33.03,48.53,44.04,18.94,14.1,37.81,33.07,49.61,53.62,2.01,3.51,4.06,9.55,6.24,12.41.58.76.69,1.36,1.89,1.11ZM553.71,223.27l8.01,10.97c16.98,18.12,32.5,36.93,44.27,58.95l6.02-6.67v-1.31c-6.51-6.04-11.4-13.5-17.03-20.3-8.33-10.07-17.94-19.92-24.9-31.04-1.25-1.99-4.87-10.11-5.36-10.62-1.81-1.85-8.47.15-11.01.02ZM1129.78,293.19c6.21-13.04,14.51-24.85,23.64-35.97,7.38-8.99,16.79-17.83,23.64-26.97.99-1.31,2.88-3.83,3.46-5.21.3-.72.92-.66-.1-1.45l-10.7-.69c-1.68,8.23-6.77,14.47-11.7,20.96-10.83,14.26-23.49,27.86-35.27,41.37-.44.5-.26.81,0,1.32.34.66,6.29,7.22,7.02,6.66ZM646.28,259.23c-8.59.06-16.39-3.93-23.3-8.66,3.96,9.13,6.85,19.11,13.65,26.64,1.54-3.48,2.95-7.14,4.86-10.45.55-.96,5.48-6.96,4.79-7.53ZM1112.48,250.58c-4.32,1.78-8.05,4.89-12.47,6.5-3.52,1.28-7.77,2.27-11.5,2.15l6.78,10.2,3.21,7.78c7.88-6.35,9.5-17.89,13.98-26.63ZM689.57,303.85c2.12-2.19-8.88-14.66-10.53-17.1-4.38-6.5-9.03-13.23-11.11-20.85-4.39,3.9-7.55,8.88-10.33,13.97,8.37,2.09,15.8,6.32,21.65,12.65,2.75,2.98,5.35,7.96,8.12,10.5.73.67.42,1.2,2.19.83ZM1067.84,265.89c-1.83-.27-1.01.2-1.32.98-5.87,14.86-13.32,20.11-20.09,32.53-1.3,2.38-3.12,5.91,1.25,4.24,6.84-11.19,15.42-20.94,28.83-23.78-.66-5.8-6.07-9.23-8.67-13.98ZM668.69,376.68c-1.24-1.32-3.75-2.57-5.1-3.89-9.5-9.34-22.2-31.2-36.97-31.04-10.11.11,1.92,12.64,3.36,15.36,2.62,4.92,2.69,10.55,5.75,15.56,1.33,2.18,6.65,6,4.14,7.69-5.21,3.49-8.72,1.08-6.24,10.74l9.64-4.02c7.05,1.14,22.28,11.18,27.12,2.49,2.69-4.83,1.97-8.97-1.71-12.89ZM1094.5,379.77c1.79-3.3,5.06-5.56,6.58-9.06,2.02-4.64,1.85-10.26,4.61-14.71,1.6-2.59,11.98-11.33,4.98-13.38-8.59-2.52-19.33,7.34-24.51,13.17-3.23,3.64-5.68,8.12-8.96,11.68-6.04,6.55-17.93,10.56-13.01,21.63,4.91,11.06,20.96-2.8,29.68-1.04,1.44.29,7.45,3.38,7.94,3.04,2.36-7.23-.01-10.46-7.32-11.33ZM935.98,582.9c2.68-39.23,12.59-83.88,44.31-109.87,7.19-5.89,20.38-12.34,23.28-21.34,2.12-6.57.22-12.43.31-19,.13-8.98,2.18-17.91,1.35-27.26-.56-6.26-3.67-11.72-5.32-17.66-1.16-.16-.63,1.51-.66,2.32-.41,10.56,3.16,20.16-2.54,30.1-1.81,3.16-6.97,7.31-7.82,10.17-.74,2.48-.03,5.1-.38,7.62-2.21,16.24-15.32,18.81-25.55,27.73-8.63,7.53-6.34,12.67-9.67,22.3-1.97,5.69-5.34,10.81-7.65,16.33-8.47,20.24-18.08,49.59-12.68,71.25l3,7.32ZM800.79,582.24c3.44-12.91,4.2-24.81,1.69-37.99-4.06-21.34-13.97-36.42-20.35-55.58-1.84-5.52-1.96-13.41-4.1-17.88-4.32-9.05-23.39-12.22-29.31-26.63-2.48-6.03-.82-9.84-2.04-14.61-.52-2.03-5.22-6.39-6.63-8.69-6.94-11.26-3.38-17.87-3.87-29.45-.03-.81.51-2.47-.66-2.32-2.46,7-5.27,13.31-5.37,20.95-.06,4.66,1.28,10.05,1.39,14.64.18,7.02-1.39,23.93,1.41,29.22,3.24,6.13,16.29,13.53,22.19,18.44,29.98,24.98,40.41,66,44.3,103.55.07.65-.49,8.6,1.33,6.32ZM1050.54,430.72c-1.03,6.24,0,18.34,0,25.31,0,.1.8,1.75.99,1.66,4.41-3.37,8.97-6.72,13.71-9.6,3.25-1.97,22.24-12.87,24.33-13.02,2.29-.17,3.56,1.1,6.4-.2,7.66-3.51.05-6.64-1.97-10.99-4.01-8.61-1.21-18.33,2.48-26.49.47-1.14-1.58-1.57-2.23-1.47-5.41.87-8.12,14.37-18.14,15.76-3.32.46-8.55-1.19-10.63.02-3.19,5.3-14.01,13.36-14.95,19.02ZM684.9,457.03c-.72-8.23,1.21-18.23-.04-26.26-.34-2.19-2.56-4.94-3.97-6.68-3.38-4.16-7.95-8.3-11.32-12.66-3.39-.69-6.6.72-10.31.32-3.9-.42-6.82-2.46-9.33-5.32-2.93-3.35-5.6-11.23-10.97-9.32,3.26,8.61,6.25,18.32,1.46,27.1-1.06,1.95-7.27,6.52-6.13,8.18,3.61,1.67,7.38.9,10.93,1.4,4.02.57,20.2,10.04,24.57,12.72,5.22,3.21,10.21,6.87,15.11,10.53ZM1183.75,520.96c9.44-5.09,9.21-17.44,11.51-26.78,2.59-10.53,7.74-25.5,8.97-35.67.58-4.78-6.87-14.01-11.16-15.8-6.51-2.71-15.73-3.11-22.99-5.65-6.54-2.29-20.14-11.99-26.26-8.97-1.7.84-5.87,6.39-6.38,8.27-3.08,11.35,16.09,16.74,23.2,20.8,11.76,6.7,11.41,16.12,7.13,27.84,5.71-5.37,6.47-14.39,9.65-20.65,3.02-5.95,14.01-8.77,19.54-4.55.01,16.11-2.14,35.58-8.04,50.68-1.42,3.62-3.72,6.89-5.16,10.48ZM567.69,483.67c-3.84-11.18-3.47-19.88,7.13-26.51,7.19-4.49,31.43-10.75,21.16-23.42-.69-.85-5.92-4.98-6.81-5.2-4.92-1.25-14.17,5.34-19.02,7.3-13.17,5.32-24.56,2.23-34.43,14.18-4.33,5.24-4.22,5.87-2.99,12.34,1.92,10.14,9.52,45.6,13.79,52.81.75,1.26,6.69,7.91,5.19,4.14-.56-1.41-2.59-3.87-3.44-5.88-6.65-15.69-9.57-35.66-9.76-52.63,5.37-6.18,17.17-3.35,20.39,3.37,2.81,5.85,2.55,14.98,8.8,19.5ZM682.25,490.32c-1.72-4.14,1.89-11.55-.95-15.36-1.54-2.06-8.19-6.25-10.69-7.96-10.51-7.21-23.58-13.45-33.3-21.31-2.43-1.96-7.26-8.12-10.03-8.64-8.01-1.52-17.51,11.53-22.94,16.32-6.08,5.37-15.36,10.99-20.68,16.62-1.08,1.14-2.78,3.46-3.02,4.98-.98,6.2,9.83,27.46,12.38,35,2.25,6.64,3.82,13.52,5.7,20.27,3.73,4.8,10.28,5.23,15.27,8.04.4-1.97-2.49-5.48-3.97-6.69-1.96-1.6-4.51-2.01-6.31-3.68-2.55-2.35-3.48-11.24-4.69-15.29-2.39-7.95-12.1-27.77-10.53-34.48,1.32-5.67,11.18-8.53,14.9-12.43l.96.28c11.51,13.56,22.34,27.58,32.23,42.37,5.5,8.23,7.75,18.94,19.7,9.28-13.08-3.66-17.19-14.31-24.1-24.19-6.67-9.54-13.72-18.8-20.21-28.46-.79-2.2,4.19-3.91,5.9-4.75,2.5-1.23,5.7-2.59,8.42-3.24.79-.91-1.9-4.46.31-3.93l55.66,37.25ZM1121.81,538.28c2.99-1.45,6.14-2.32,9.1-3.88,8.49-4.49,6.06-5.46,8.55-13.43,1.35-4.32,2.74-8.76,4.31-13,2.88-7.78,12.18-24.58,11.28-31.89-.86-6.94-16.48-16.51-21.93-21.37-5.68-5.06-15.62-18.74-23.58-17.63-3.93.55-19.19,14.14-23.88,17.43-10.69,7.48-22.4,13.62-32.98,21.3-.41,5.02.11,10.33,1.52,15.18,19.46-11.56,37.88-24.85,55.29-39.28l-.9,5.12.54,1.2,14.68,5c.15,1.62-.69,2.9-1.45,4.2-8.42,14.49-21.76,28.79-30.52,43.4-3.87,3.34-8.26,6.48-13.31,7.67l8.93,3.95c5.48-.22,10.71-12.53,13.7-16.96,9.13-13.49,19.78-25.88,30.64-37.98,4.09,1.81,15.29,7.41,15.99,12.07,1.01,6.74-7.87,23.64-10.18,31.06-1.2,3.86-2.99,16.02-5.45,17.86-3.76,2.81-9.51,3.1-10.33,9.97ZM767.49,619.53c11.08-36.75,12.96-78.11-.34-114.54l-3.65-7.33c.99,17.48-.66,32.98-7.01,49.27-5.42,13.9-15.41,25.83-17.56,41.05-2.11,14.98,1.09,36.34,9.11,49.33,1.1,1.78,3.84,6.41,6.13,5.19-1.7-9.42-4.55-20.4-4.03-29.99.29-5.31,1.65-14.79,8.62-14.23l5.08,15.23,3.63,6.01ZM971.95,498.33c-1.9-.37-1.08.5-1.51,1.45-16.41,35.72-9.03,71.96-11.12,109.46-.1,1.74-.94,11.63-2.36,11.61l-5.65-22.63c-2.82,19.47-4.16,39.34-7.54,58.73-2.49,14.3-7.87,23.9-11.2,36.76-1.69,6.54-2.57,14.64-3.24,21.41-.15,1.54.17,1.71.82.15,3.51-8.52,7.92-16.7,13.83-23.81-4.79,18.91-9.3,38.95.02,57.27,1.24.16.5-1.34.37-2.03-2.68-13.92-.24-27,4.27-40.27,2.35-6.92,6.08-13.45,8.48-20.15,8.59-23.92,12.45-52.03,12.18-77.4l2.35,7.97c4.07,18.86.56,37.23-5.01,55.3,7.8-9.14,13.57-18.79,14.56-31.05,2.12-26.27-5.85-52.51-12.57-77.5.99-1.04,8.99,7.3,9.87,8.43,1.55,1.99,3.77,5.51,4.89,7.76,1.66,3.33,2.76,9.18,4.21,11.78.18.32.85.85,1,.66,3.14-10.68-3.67-16.76-8.1-24.86-5.78-10.56-9.2-18.41-9.9-30.72-.71-12.33-.14-26.12,1.36-38.32ZM811.45,700.78c-3.91-11.21,5.32-21.94,7.03-31.92,3.81-22.22-25.65-43.72-26.7-66.61l-3.63-19.33c-.34,8.98-1.84,17.87-3.66,26.65-6.47,31.14-26.66,69.19-5.56,98.78,11.81,16.56,30.77,29.39,38.52,49.06,1.22.15.57-1.42.48-2.14-2.57-19.59-12.85-24.38-20.58-39.36-5.01-9.71-3.65-21.94-1.88-32.41l7.64,10.66,8.33,6.64ZM902.69,642.84c-2.73.96-5.07,2.82-7.81,3.84-9.89,3.67-22.46,1.36-33.18,1.45-7.13.06-11.09,1.47-18.72-.53-3.9-1.03-7.27-3.14-10.89-4.75,5.58,10.52,9.37,18.82,22.97,18.7,8.6-.08,21.79.24,29.96-.73,9.53-1.13,14.1-10.07,17.65-17.97Z"/>
      <path class="st0" d="M872.06,786.03h-7.99c.54-16.98-10.33-33.54-20.67-46.26-.85-1.04-1.89-3.21-3.3-3.02,1.29,3.63,2.31,8.44,2.65,12.32.08.87.57,4.13-.65,4.31.09-.76-.32-1.09-.83-1.55-6.39-5.66-12.14-11.93-16.76-19.15-2.97-4.64-6.45-10.59-6.72-15.92.97,2.08,14.66,12.33,15.65,11.32-6.26-17.83-8.55-41.93,4.33-57.26,5.85,5.46,9.77,11.62,16.78,15.84,3.78,2.27,9.55,3.38,11.54,7.45l1.31-.32-9.32-11.65c12.39,4.32,22.26,13.93,17.32,27.96,6.8-7.51,9.84-17.46,13.64-26.64,6.21,5.84,4.02,15.87,1.87,23.17-1.49,5.05-4.86,10.02-6.54,14.77-.2.57-.78,1.77,0,2,6.36-4.16,14.47-7.26,19.33-13.31,8.35-10.39,5.66-27.45,10.66-39.96,4.74-11.85,17.79-17.43,19.3-30.65,4.21,15.45-5.02,29.72-9.17,44.12-6.41,22.23-5.09,54.41-18.2,72.38-8.83,12.1-22.42,21.15-34.24,30.03Z"/>
      <path class="st0" d="M1209.71,328.49v44.62c-6.13,1-12.75,2.39-18.95,2.69-20.2.97-41.98-6.95-55.31,13.95-1.7-10.16,7.47-17.17,12.47-24.82,1.81-2.77,2.92-6.25,4.62-8.7,3.3-4.76,33.7-20.02,40.73-23.21,5.16-2.34,10.63-4.62,16.43-4.54Z"/>
      <path class="st0" d="M527.74,328.49c4.82,0,9.28,2.18,13.56,4.09,7.36,3.28,34.55,16.74,39.39,21.22,1.57,1.45,17.08,24.02,18.2,26.43,1.3,2.8,2.83,6.48,1.79,9.53-8.84-10.36-18.26-15.08-32.03-15.2-1.34-.01-2.58.59-3.92.59-12.38-.07-24.83.6-36.99-2.03v-44.62Z"/>
      <path class="st0" d="M1209.71,398.42v29.3c-9.24-3.13-18.79-2.14-28.22-3.41-7.26-.98-14.86-3.43-21.51-6.46-7.63-3.48-14.52-10.56-23.32-6.91-6.48,2.69-5.65,8.11-6.27,13.71-.08.69-.27,3.13-1.25,3.07-4.02-11.71.39-23.83,11.52-29.42,13.46-6.76,29.28.04,43.38.82,8.24.45,17.51.1,25.67-.69Z"/>
      <path class="st0" d="M527.74,399.09c9.92.68,20.97.44,30.89-.75,12.97-1.55,23.74-7.03,36.58.22,8.25,4.65,12.86,11.81,11.82,21.54l-1.36,6.29c-.73-8.88-2.19-18.53-13.67-17.33-4.39.46-15.37,8.41-20.73,10.58-14.66,5.93-28.7,4.14-43.53,8.09v-28.64Z"/>
      <path class="st0" d="M1209.71,255.9v24.64c-18.43,15.52-41,25.73-58.27,42.61l-5.66-7.65c11.28-8.52,23.93-15.05,35.64-22.96,8.51-5.74,25.63-16.24,25.63-27.65v-14.32l2.66,5.33Z"/>
      <path class="st0" d="M527.74,281.87v-29.97l1.33-2.66c-.29,14.03-1.98,21.27,9.02,31.28,15.06,13.7,35.4,22.67,51.59,34.98l-6.02,6.74c-17.12-15.5-37.86-26.08-55.91-40.37Z"/>
      <path class="st0" d="M778.82,340.81c.83-5.3,8.99-17.64,12.67-21.96,7.64-8.97,35.02-27.85,35.31-38.67.13-4.73-1.82-9.86-1.39-15.32,1.42-17.96,17.77-14.79,21.81-27.47,1.97-6.19,2.19-21.21.56-27.49-2.38-9.14-12.8-11.62-19.35-16.61-5.78-4.4-21.31-21.18-25.25-27.36-2.16-3.39-3.95-7-5.72-10.59,1.34-.98,6.74,1.88,8.21,2.78,10,6.1,20.27,16.81,30.63,22.65,4.06,2.29,8.58,3.97,10.66-1.58,3.37-8.96-3.21-16.93-5.54-25.19l10.99,5.32c.82-2.77-1.96-6.76-3.69-8.97-2.14-2.74-19.51-17.43-16.64-20.33,4.56-.51,9.18,2.39,13.1,4.54,14.83,8.16,26.34,20.78,36.82,33.78.5.62,3.79,6.01,4.03,3.97,1.01-9.52.75-18.84-.67-28.3,2-2.2,7.55,8.87,8.01,10.29.59,1.81,1.97,7.1,1.97,8.68v15.65c.86.21,1.18-.22,1.8-.53,5.67-2.83,14.01-8.67,19.72-12.25,6.2-3.89,11.57-9.65,19.1-11.19-3.25,13.7-14.31,20.95-23.32,30.28-2.65,2.75-4.54,6.68-7.64,9.01-6.24,4.69-16.95,7.4-18.26,17.04-1.07,7.94-1.49,21.31,2.02,28.5,4.14,8.46,15.94,9.48,19.35,18.61.93,2.48,1.89,8.22,1.87,10.78-.02,3.91-2.09,7.5-1.29,12.61,1.66,10.62,29.37,29.96,37.24,40.02,3.39,4.33,10.67,15.99,10.67,21.29v10.32c1.32-.49,2.38-1.29,3.33-2.33,2.48-2.74,2.53-8.02,6.37-5.69,4.51,2.74,14.24,15.67,16.64,20.65,5.15,10.67,3.44,14.38-4.67,22.03-22.47,21.16-59.57,44.92-69.26,75.26-5.4,16.93-6.31,35.04-4.02,52.58l9.82-35.47c2.45-6.19,5.76-12.11,10.16-17.15.8-.91,6.23-6.68,7-5.98,2.12,8.86,6.21,17.72,6.69,26.94.46,8.92-1.88,9.39-4.81,16.56-5.31,13.03-14.68,45.22-15.21,58.75-.43,11.12,8.67,25.49,9.93,36.67,3.11,27.71-29.97,42.45-52.54,30.89l4.64-3.67c6.93-8.06,11.47-19.35,17.73-27.56,4.48-5.88,10.39-8.42,13.25-16.05,2.63-7,1.39-10.76,1.01-17.65-.28-5.08.09-9.93-1.35-14.97l-5.42,17.55c-4.04,11.2-15.76,12.45-26.22,13.08-15.63.93-43.21,2.88-50.18-14.41l-5.42-16.22c-1.34,9.97-4.14,23.57-.13,33.09,2.52,5.98,8.7,9.35,12.4,14.24s7.11,12.38,10.76,17.88c3.19,4.82,6.89,11.76,12.26,14.05-4.76,4.04-14.1,5.04-20.34,4.68-13.35-.75-32.16-12.72-33.6-27.01-1.8-17.88,12.1-31.28,10.64-48.6-1.71-20.31-10.61-43.71-18.3-62.28-5.13-12.38,2.77-24.53,5-36.63,7.7,5.21,13.34,13.12,16.47,21.81l10.82,37.46,1.33-22.3c-.96-37.77-21.08-58.54-47.27-81.93-9.32-8.33-20.4-15.68-29.32-23.96-2.58-2.39-5.26-5.18-5.83-8.83-1.64-10.52,13.5-31,23.15-35.47-.42,3.81,2.7,8.98,6.67,9.32.39-3.61-.54-8.2,0-11.65Z"/>
      <path class="st0" d="M701.56,272.22c-.2-2.43-1.08-7.14-1.8-9.52-1-3.36-6.68-10.85-5.71-13.25,1.33-3.3,6.6-4.91,9.18-6.86,5.52-4.2,18.5-24.22,21.01-30.94,2.71-7.26,3.15-12.54,7.81-19.5,3.97-5.92,9.86-9.89,14.13-15.18,1.56-1.94,3.05-5.51,4.38-6.94,1.56-1.68,18.46-6.78,21.45-7.19,12.43-1.7,10.72,4.16,14.3,12.66,7.67,18.26,18.66,13.62,32.93,21.68,14.6,8.24,18.75,16.88,16.12,33.67-1.59,10.15-5.11,10.45-10.56,17.41-7.92,10.11-3.03,19.47-8.55,30.08-9.49,18.25-49.6,37.61-67.07,54.14-15.11,14.3-26.51,31.14-35.28,49.95-2.16-1.84-.36-4.64-.31-6.95.25-10.87,0-17.71-4.18-27.84-3.9-9.44-9.09-15.33-19.82-16.48-1.49-1.72,9.8-16.63,11.98-18.64-4.08,16.1,9.8,25,14.68,38.94.92,2.61,1.19,5.42,1.96,8.04.28.96-.38,1.16,1.34.96,3.96-6.95,8.72-14.3,14.02-20.29,5.96-6.74,15.07-12.79,20.31-19.65,1.13-1.48,2.19-2.98,2.37-4.92-3.51-3.14-10.13-3.56-13.38-6.75-2.82-2.76-4.76-10.69-6.74-14.57-2.95-5.79-8.5-12.89-12.9-17.74-7.23-7.97-12.99-11.67-18.44.89l-3.21,8.45c-.26-4.45.36-9.25,0-13.65Z"/>
      <path class="st0" d="M1022.57,382.44c-1.2.25-1.31-.35-1.89-1.11-2.18-2.86-4.22-8.9-6.24-12.41-11.8-20.56-30.66-39.52-49.61-53.62-14.8-11.02-44.38-24.84-48.53-44.04-1.34-6.19-.17-12.36-2.83-18.48-2.81-6.45-10.44-10.03-12.64-15.99-3.48-9.41-3.23-22.92,3.52-30.84,11.76-13.81,34.21-10.86,42.42-25.51,4.79-8.53,2.05-19.49,16.02-17.6,2.68.36,17.67,4.97,19.77,6.21,2.49,1.48,3.73,5.32,5.71,7.61,7.45,8.67,14.3,12.7,19.11,24.18,2.04,4.87,2.61,10.54,4.92,15.06,2.8,5.49,15.14,23.49,19.66,26.96,2.13,1.63,7.79,3.81,8.49,6.2.83,2.82-3.56,7.97-4.67,11.05-2.74,7.59-2.4,17.12-2.55,25.1l-3.2-8.44c-5.43-12.27-12.37-6.96-19.11.44-8.84,9.72-13.73,20.43-18.96,32.33-3.46,4.04-17.03,1.88-11.33,9.98,4.58,6.51,15.41,15.15,21.29,21.99,5.35,6.22,10.15,12.78,14.66,19.63,1.21-5.17,2.5-10.74,4.77-15.55,4.44-9.45,12.64-14.32,13.16-26.14.07-1.64-1.73-5.18.06-6.25,3.45,6.36,10.11,10.67,12,17.97-10.69.89-16.94,9.11-20.49,18.48-1.17,3.1-3.49,11.48-3.49,14.49v18.31Z"/>
      <path class="st0" d="M754.17,152c-3.17.04-10.61-.61-12.7,2.29-.9,1.26-.96,4.51-1.63,6.36-2.36,6.5-13.04,15.73-17.5,22.46-8.8,13.27-4.94,24.31-11.75,37.53-2.08,4.03-13.16,18.67-16.76,20.53-9.7,5.01-16.63-12.76-21.87-17.92-4.36-4.3-13.1-7.58-19.18-6.47-11.28,2.06,2.05,14.39,4.71,18.28,3.1,4.53,6.65,11.11,8.31,16.33.21.66.97,2.12.14,2.52-7.24-10.67-21.68-21.52-25.16-34.11-1.29-4.67-2.34-6.2,2.16-8.86,6.18-3.66,11.66-3.08,17.7-8.94,9.69-9.42,10.54-19.91,15.12-31.5,3.58-9.07,8.61-11.38,14.47-18.16,5.65-6.54,9.25-14.5,15.33-20.64.78-1.88-4.64-.9-5.32-.32,1.26-5.68,5.06-6.97,10.17-4.51,3.76,1.81,4.07,8.16,9.59,11.06,10.3,5.41,26.69,1.6,34.18,14.1Z"/>
      <path class="st0" d="M1032.43,126.17l2.8,4.52-5.99,1c5.86,5.25,9.13,12.53,14,18.63,5.84,7.32,12.91,11.76,16.48,20.81,4.97,12.6,5.54,24.42,17.91,33.37,3.39,2.45,16.68,6.18,17.41,8.57,3.43,11.27-20.81,31.68-26.18,40.82.28-4.67,3.21-10.31,5.55-14.43,2.65-4.67,12.48-15.01,12.1-19.13-.63-6.77-13.42-2.86-17.32-.75-8.39,4.56-15.16,22.04-22.98,22.37-7.12.3-18.59-16.4-21.74-22.24-5.57-10.32-3.19-14.51-5.38-24.59-3.17-14.53-19.07-22.88-23.46-35.15-.54-1.51-.85-5.39-1.15-5.85-1.31-2.06-10.71-2.43-13.19-2.13,2.84-3.78,7.81-7.15,12.19-8.78,6.62-2.45,16.41-2.18,21.99-5.98,5.6-3.81,6.14-14.17,16.96-11.07Z"/>
      <path class="st0" d="M1117.15,239.92c2.61-7.21,5.14-14.65,8.97-21.32,2.13-3.71,10.37-13.21,10.37-16.3,0-9.79-21.29-15.04-28.86-13.5-9.61,1.95-8.54,19.09-21.81,8.86-11.77-9.07-16.65-35.55-25.96-48.63-4.21-5.91-17.82-15.85-7.94-23.27,11.46-8.61,17.41-.14,28.27.95,8.01.8,19.21-2.24,25.64,3.66,2.83,2.59,11.98,19.2,13.88,23.42,2.03,4.49,3.17,12.03,5.14,15.51,1.25,2.2,5.38,5.06,7.22,7.43,1.86,2.39,3.03,5.5,4.78,7.87,3.96,5.37,8.25,10.5,12.01,16.03l-.35,1.71c-8.95,6.45-15.62,14.47-21.92,23.41-3.28,4.65-5.93,9.73-9.44,14.2Z"/>
      <path class="st0" d="M686.04,128.22c5,6.29-8.09,17.31-11.39,21.84-6.08,8.33-8.64,18.45-12.93,27.7-2.9,6.26-10.4,21.72-17.81,22.82-9.91,1.47-6.55-10.96-18.57-11.97-7.5-.63-29.11,5.76-26.03,16.04.8,2.68,7.96,10.92,10.03,14.61,2.88,5.14,7.01,14.4,8.66,19.98.2.66.93,2.13-.34,2-8.21-14.41-17.94-30.15-31.97-39.3v-.97c7.72-7.02,12.23-17.61,18.66-25.31,1.3-1.55,5.55-4.73,6.01-5.48,1.85-3.01,3.39-12.04,5.39-16.42,1.5-3.3,11.88-22.06,13.66-23.64,6.51-5.77,18.97-2.55,27.13-3.5,6.75-.79,13.22-6.17,20.2-4.07,1.24.37,8.62,4.8,9.31,5.67Z"/>
      <path class="st0" d="M971.95,498.33c-1.5,12.2-2.07,25.99-1.36,38.32.71,12.32,4.13,20.16,9.9,30.72,4.43,8.1,11.24,14.18,8.1,24.86-.15.19-.82-.34-1-.66-1.44-2.6-2.55-8.44-4.21-11.78-1.12-2.25-3.35-5.77-4.89-7.76-.88-1.14-8.88-9.47-9.87-8.43,6.72,24.99,14.69,51.23,12.57,77.5-.99,12.27-6.76,21.91-14.56,31.05,5.58-18.07,9.08-36.44,5.01-55.3l-2.35-7.97c.27,25.37-3.59,53.48-12.18,77.4-2.41,6.7-6.13,13.23-8.48,20.15-4.51,13.27-6.95,26.35-4.27,40.27.13.69.87,2.19-.37,2.03-9.31-18.32-4.81-38.36-.02-57.27-5.91,7.11-10.31,15.29-13.83,23.81-.64,1.56-.97,1.39-.82-.15.68-6.77,1.55-14.87,3.24-21.41,3.32-12.86,8.7-22.45,11.2-36.76,3.38-19.38,4.73-39.26,7.54-58.73l5.65,22.63c1.42.02,2.26-9.88,2.36-11.61,2.09-37.5-5.29-73.74,11.12-109.46.43-.95-.39-1.82,1.51-1.45Z"/>
      <path class="st0" d="M811.45,700.78l-8.33-6.64-7.64-10.66c-1.78,10.47-3.13,22.7,1.88,32.41,7.73,14.98,18.01,19.77,20.58,39.36.09.72.74,2.29-.48,2.14-7.76-19.67-26.71-32.5-38.52-49.06-21.1-29.58-.91-67.63,5.56-98.78,1.82-8.77,3.32-17.67,3.66-26.65l3.63,19.33c1.04,22.9,30.51,44.4,26.7,66.61-1.71,9.99-10.94,20.72-7.03,31.92Z"/>
      <path class="st0" d="M767.49,619.53l-3.63-6.01-5.08-15.23c-6.96-.56-8.33,8.91-8.62,14.23-.52,9.59,2.33,20.57,4.03,29.99-2.29,1.22-5.03-3.41-6.13-5.19-8.03-12.99-11.22-34.35-9.11-49.33,2.15-15.22,12.13-27.15,17.56-41.05,6.35-16.29,8-31.79,7.01-49.27l3.65,7.33c13.29,36.43,11.42,77.78.34,114.54Z"/>
      <path class="st0" d="M1121.81,538.28c.82-6.87,6.57-7.16,10.33-9.97,2.46-1.84,4.25-14,5.45-17.86,2.31-7.41,11.19-24.32,10.18-31.06-.7-4.66-11.91-10.26-15.99-12.07-10.86,12.1-21.51,24.49-30.64,37.98-2.99,4.42-8.22,16.73-13.7,16.96l-8.93-3.95c5.05-1.19,9.44-4.34,13.31-7.67,8.76-14.62,22.1-28.92,30.52-43.4.76-1.31,1.6-2.59,1.45-4.2l-14.68-5-.54-1.2.9-5.12c-17.41,14.43-35.82,27.72-55.29,39.28-1.41-4.85-1.93-10.16-1.52-15.18,10.58-7.67,22.29-13.81,32.98-21.3,4.7-3.29,19.95-16.88,23.88-17.43,7.96-1.11,17.9,12.56,23.58,17.63,5.45,4.86,21.07,14.43,21.93,21.37.91,7.31-8.4,24.11-11.28,31.89-1.57,4.25-2.96,8.68-4.31,13-2.49,7.97-.06,8.94-8.55,13.43-2.96,1.57-6.11,2.43-9.1,3.88Z"/>
      <path class="st0" d="M682.25,490.32l-55.66-37.25c-2.21-.54.48,3.02-.31,3.93-2.72.65-5.91,2.01-8.42,3.24-1.71.84-6.69,2.55-5.9,4.75,6.5,9.66,13.55,18.92,20.21,28.46,6.91,9.88,11.02,20.53,24.1,24.19-11.95,9.66-14.2-1.05-19.7-9.28-9.89-14.79-20.71-28.81-32.23-42.37l-.96-.28c-3.72,3.9-13.58,6.76-14.9,12.43-1.57,6.71,8.14,26.53,10.53,34.48,1.21,4.05,2.15,12.93,4.69,15.29,1.81,1.67,4.35,2.08,6.31,3.68,1.48,1.2,4.37,4.71,3.97,6.69-4.99-2.8-11.55-3.23-15.27-8.04-1.88-6.75-3.45-13.63-5.7-20.27-2.55-7.53-13.36-28.8-12.38-35,.24-1.52,1.94-3.83,3.02-4.98,5.32-5.62,14.6-11.25,20.68-16.62,5.43-4.79,14.93-17.84,22.94-16.32,2.76.52,7.6,6.68,10.03,8.64,9.72,7.86,22.79,14.1,33.3,21.31,2.49,1.71,9.15,5.9,10.69,7.96,2.85,3.81-.77,11.22.95,15.36Z"/>
      <path class="st0" d="M935.98,582.9l-3-7.32c-5.4-21.65,4.22-51.01,12.68-71.25,2.31-5.52,5.68-10.63,7.65-16.33,3.33-9.63,1.03-14.78,9.67-22.3,10.23-8.92,23.34-11.49,25.55-27.73.34-2.51-.36-5.14.38-7.62.85-2.86,6-7,7.82-10.17,5.69-9.94,2.13-19.54,2.54-30.1.03-.81-.5-2.48.66-2.32,1.66,5.94,4.77,11.39,5.32,17.66.83,9.35-1.22,18.29-1.35,27.26-.09,6.57,1.81,12.44-.31,19-2.9,9-16.1,15.45-23.28,21.34-31.72,25.98-41.63,70.64-44.31,109.87Z"/>
      <path class="st0" d="M800.79,582.24c-1.83,2.28-1.27-5.67-1.33-6.32-3.88-37.55-14.32-78.58-44.3-103.55-5.89-4.91-18.94-12.3-22.19-18.44-2.8-5.3-1.24-22.2-1.41-29.22-.11-4.6-1.46-9.98-1.39-14.64.1-7.65,2.91-13.95,5.37-20.95,1.16-.16.62,1.51.66,2.32.48,11.57-3.07,18.19,3.87,29.45,1.41,2.3,6.11,6.66,6.63,8.69,1.22,4.77-.44,8.57,2.04,14.61,5.92,14.41,25,17.58,29.31,26.63,2.13,4.47,2.26,12.36,4.1,17.88,6.37,19.16,16.29,34.24,20.35,55.58,2.51,13.17,1.75,25.08-1.69,37.99Z"/>
      <path class="st0" d="M1183.75,520.96c1.45-3.6,3.75-6.86,5.16-10.48,5.9-15.1,8.05-34.57,8.04-50.68-5.54-4.22-16.53-1.4-19.54,4.55-3.18,6.26-3.93,15.28-9.65,20.65,4.28-11.72,4.63-21.14-7.13-27.84-7.11-4.06-26.29-9.44-23.2-20.8.51-1.88,4.69-7.43,6.38-8.27,6.13-3.02,19.72,6.68,26.26,8.97,7.26,2.54,16.48,2.94,22.99,5.65,4.29,1.79,11.74,11.02,11.16,15.8-1.23,10.17-6.38,25.14-8.97,35.67-2.3,9.34-2.07,21.69-11.51,26.78Z"/>
      <path class="st0" d="M567.69,483.67c-6.25-4.52-5.99-13.65-8.8-19.5-3.23-6.72-15.02-9.55-20.39-3.37.2,16.97,3.12,36.94,9.76,52.63.85,2.01,2.88,4.48,3.44,5.88,1.51,3.77-4.44-2.88-5.19-4.14-4.27-7.2-11.87-42.66-13.79-52.81-1.23-6.47-1.34-7.1,2.99-12.34,9.88-11.95,21.26-8.86,34.43-14.18,4.85-1.96,14.1-8.55,19.02-7.3.89.23,6.12,4.35,6.81,5.2,10.27,12.67-13.97,18.92-21.16,23.42-10.6,6.63-10.97,15.33-7.13,26.51Z"/>
      <path class="st0" d="M1050.54,430.72c.94-5.66,11.76-13.71,14.95-19.02,2.09-1.21,7.31.43,10.63-.02,10.02-1.39,12.73-14.89,18.14-15.76.65-.1,2.7.33,2.23,1.47-3.7,8.16-6.5,17.88-2.48,26.49,2.02,4.34,9.63,7.48,1.97,10.99-2.84,1.3-4.11.03-6.4.2-2.09.15-21.08,11.05-24.33,13.02-4.75,2.88-9.3,6.23-13.71,9.6-.19.09-.99-1.56-.99-1.66,0-6.97-1.03-19.07,0-25.31Z"/>
      <path class="st0" d="M684.9,457.03c-4.9-3.66-9.89-7.32-15.11-10.53-4.38-2.69-20.55-12.16-24.57-12.72-3.55-.5-7.32.27-10.93-1.4-1.14-1.66,5.06-6.23,6.13-8.18,4.79-8.78,1.8-18.49-1.46-27.1,5.38-1.91,8.05,5.97,10.97,9.32,2.51,2.86,5.43,4.9,9.33,5.32s6.92-1.01,10.31-.32c3.37,4.36,7.94,8.5,11.32,12.66,1.41,1.74,3.63,4.5,3.97,6.68,1.24,8.03-.69,18.03.04,26.26Z"/>
      <path class="st0" d="M1094.5,379.77c7.3.87,9.68,4.1,7.32,11.33-.49.35-6.5-2.75-7.94-3.04-8.73-1.76-24.77,12.1-29.68,1.04-4.92-11.07,6.97-15.08,13.01-21.63,3.29-3.56,5.73-8.04,8.96-11.68,5.18-5.83,15.93-15.69,24.51-13.17,6.99,2.05-3.38,10.8-4.98,13.38-2.75,4.45-2.59,10.07-4.61,14.71-1.52,3.5-4.79,5.76-6.58,9.06Z"/>
      <path class="st0" d="M668.69,376.68c3.68,3.92,4.4,8.06,1.71,12.89-4.85,8.68-20.08-1.36-27.12-2.49l-9.64,4.02c-2.48-9.66,1.03-7.24,6.24-10.74,2.51-1.68-2.81-5.51-4.14-7.69-3.06-5.01-3.13-10.64-5.75-15.56-1.45-2.72-13.47-15.24-3.36-15.36,14.76-.16,27.47,21.7,36.97,31.04,1.35,1.32,3.86,2.57,5.1,3.89Z"/>
      <path class="st0" d="M610.32,148.02c-6.47,8.9-12.38,18.4-19.33,26.95-4.75,5.84-10.46,10.95-15.28,16.69-3.2,3.8-16.63,23.15-19.3,23.99-1.32.42-2.67.34-4.03.29,2.25-9.6,7.47-18.08,11.16-27.13,3.36-8.23,1.33-12.25,10.58-16.73,6.13-2.97,11.27-3.8,16.9-8.41,4.1-3.36,12.08-14.21,15.96-15.34,1.12-.33,2.2-.4,3.35-.31Z"/>
      <path class="st0" d="M1183.07,215.94c-1.36.05-2.71.12-4.03-.29-2.47-.78-14.89-18.98-17.96-22.66-11.65-13.94-23.93-27.26-34.2-42.39-.42-.62-2.29-2.71-1.74-3.24,9.26,2.18,13.6,11.8,21.09,17.2,5.72,4.12,12.04,5.13,17.33,8.64,5.91,3.92,5.95,10.21,8.54,16.1,1.45,3.3,12.45,25.18,10.98,26.65Z"/>
      <path class="st0" d="M902.69,642.84c-3.55,7.9-8.12,16.84-17.65,17.97-8.18.97-21.36.65-29.96.73-13.6.12-17.4-8.18-22.97-18.7,3.62,1.61,6.99,3.73,10.89,4.75,7.62,2.01,11.59.59,18.72.53,10.72-.09,23.29,2.22,33.18-1.45,2.74-1.02,5.07-2.88,7.81-3.84Z"/>
      <path class="st0" d="M1129.78,293.19c-.74.56-6.69-6.01-7.02-6.66-.26-.51-.44-.82,0-1.32,11.78-13.51,24.44-27.11,35.27-41.37,4.93-6.49,10.02-12.73,11.7-20.96l10.7.69c1.02.8.4.74.1,1.45-.58,1.38-2.47,3.9-3.46,5.21-6.86,9.15-16.27,17.98-23.64,26.97-9.13,11.12-17.43,22.94-23.64,35.97Z"/>
      <path class="st0" d="M553.71,223.27c2.54.13,9.2-1.88,11.01-.02.5.51,4.12,8.63,5.36,10.62,6.96,11.12,16.57,20.97,24.9,31.04,5.63,6.81,10.52,14.26,17.04,20.3v1.31s-6.04,6.67-6.04,6.67c-11.77-22.01-27.29-40.82-44.27-58.95l-8.01-10.97Z"/>
      <path class="st0" d="M689.57,303.85c-1.77.37-1.46-.15-2.19-.83-2.77-2.55-5.37-7.53-8.12-10.5-5.85-6.34-13.28-10.57-21.65-12.65,2.78-5.09,5.94-10.07,10.33-13.97,2.08,7.62,6.73,14.35,11.11,20.85,1.64,2.44,12.65,14.92,10.53,17.1Z"/>
      <path class="st0" d="M1067.84,265.89c2.61,4.74,8.01,8.17,8.67,13.98-13.41,2.84-21.99,12.59-28.83,23.78-4.37,1.67-2.55-1.86-1.25-4.24,6.76-12.42,14.22-17.68,20.09-32.53.31-.78-.51-1.25,1.32-.98Z"/>
      <path class="st0" d="M1112.48,250.58c-4.48,8.74-6.1,20.28-13.98,26.63l-3.21-7.78-6.78-10.2c3.74.12,7.98-.87,11.5-2.15,4.42-1.61,8.15-4.72,12.47-6.5Z"/>
      <path class="st0" d="M646.28,259.23c.69.56-4.24,6.57-4.79,7.53-1.91,3.31-3.32,6.97-4.86,10.45-6.8-7.53-9.69-17.5-13.65-26.64,6.91,4.73,14.71,8.72,23.3,8.66Z"/>
    </g>
    <polyline class="st0" points="527.74 251.9 516.92 272.48 527.74 281.87"/>
    <polyline class="st0" points="1209.71 255.81 1220.53 273 1209.71 280.85"/>
    <path class="st0" d="M527.74,328.49h-17.23s10.08,16.09,0,43.57l17.23,1.05"/>
    <path class="st0" d="M527.74,399.09h-17.23s13.56,9.63,11.82,17.88c-1.74,8.25-3.21,15.58-3.21,15.58l8.61-4.81"/>
    <path class="st0" d="M1209.71,328.49h17.23s-10.08,16.09,0,43.57l-17.23,1.05"/>
    <path class="st0" d="M1209.71,399.09h17.23s-13.56,9.63-11.82,17.88c1.74,8.25,3.21,15.58,3.21,15.58l-8.61-4.81"/>
  </g>
  <text class="st1" transform="translate(549.29 949.91)"><tspan x="0" y="0" xml:space="preserve"> Infinri</tspan></text>
</svg>